<svg xmlns="http://www.w3.org/2000/svg" width="145.536" height="23.741" viewBox="0 0 145.536 23.741">
  <g id="logoblanco" transform="translate(0 0)">
    <path id="Trazado_5" data-name="Trazado 5" d="M40.014,16.809V8.553a5.789,5.789,0,0,1,1.1-3.73,3.394,3.394,0,0,1,2.75-1.365q3.237,0,3.237,4.731v8.62h3.782V7.229a8.283,8.283,0,0,0-1.5-5.417,5.285,5.285,0,0,0-4.294-1.8,7.877,7.877,0,0,0-3.352.7,6.833,6.833,0,0,0-2.56,2.043h-.066A5.136,5.136,0,0,0,34.184.017a6.327,6.327,0,0,0-2.8.653,6.976,6.976,0,0,0-2.353,1.878h-.05V.265H25.2V16.792h3.782V8.553A5.729,5.729,0,0,1,30.1,4.823a3.517,3.517,0,0,1,2.849-1.365q3.285,0,3.286,4.731v8.62Zm21.1.248a6.216,6.216,0,0,0,5.252-2.482h.05v2.217h3.616V.265H66.251V2.25h-.066a6.324,6.324,0,0,0-5.1-2.233A7.76,7.76,0,0,0,55.4,2.432a8.19,8.19,0,0,0-1.668,2.73,9.589,9.589,0,0,0-.611,3.44,9.607,9.607,0,0,0,.61,3.475,7.853,7.853,0,0,0,1.669,2.68,7.348,7.348,0,0,0,2.535,1.7,8.325,8.325,0,0,0,3.18.6Zm.6-3.441a4.492,4.492,0,0,1-3.419-1.4,5.031,5.031,0,0,1-1.321-3.6,5.175,5.175,0,0,1,1.362-3.747,4.521,4.521,0,0,1,3.394-1.414,4.306,4.306,0,0,1,3.345,1.48A5.311,5.311,0,0,1,66.4,8.619a4.943,4.943,0,0,1-1.363,3.6,4.471,4.471,0,0,1-3.328,1.4Zm27.112,3.193V7.064q0-3.589-1.61-5.319A5.782,5.782,0,0,0,82.762.017a7.373,7.373,0,0,0-3.056.645,6.958,6.958,0,0,0-2.477,1.87h-.05V.264H73.4V16.791h3.782v-8.3a5.428,5.428,0,0,1,1.164-3.706,3.941,3.941,0,0,1,3.113-1.323,4.488,4.488,0,0,1,1.528.231,2.81,2.81,0,0,1,1.115.753,3.252,3.252,0,0,1,.71,1.415A8.844,8.844,0,0,1,85.04,8.04v8.769h3.782Zm10.218.248a6.217,6.217,0,0,0,5.252-2.482h.05v2.217h3.616V.265h-3.782V2.25h-.066a6.325,6.325,0,0,0-5.1-2.233,7.76,7.76,0,0,0-5.682,2.415,8.207,8.207,0,0,0-1.668,2.73,9.589,9.589,0,0,0-.61,3.44,9.607,9.607,0,0,0,.61,3.475,7.866,7.866,0,0,0,1.668,2.68,7.348,7.348,0,0,0,2.536,1.7,8.325,8.325,0,0,0,3.179.6Zm.594-3.441a4.489,4.489,0,0,1-3.418-1.4,5.028,5.028,0,0,1-1.322-3.6,5.175,5.175,0,0,1,1.363-3.747,4.52,4.52,0,0,1,3.394-1.414A4.3,4.3,0,0,1,103,4.938a5.311,5.311,0,0,1,1.33,3.681,4.943,4.943,0,0,1-1.363,3.6A4.47,4.47,0,0,1,99.634,13.616ZM118.7,23.741a11.277,11.277,0,0,0,3.22-.422,7.15,7.15,0,0,0,2.387-1.175,6.385,6.385,0,0,0,1.6-1.844,8.14,8.14,0,0,0,.916-2.383,13.258,13.258,0,0,0,.281-2.829V.265h-3.782V2h-.066a7.059,7.059,0,0,0-2.353-1.49A7.62,7.62,0,0,0,118.142,0a7.766,7.766,0,0,0-4.062,1.075,7.4,7.4,0,0,0-2.8,2.987,9.122,9.122,0,0,0-1,4.293,8.612,8.612,0,0,0,1.049,4.285,7.222,7.222,0,0,0,2.882,2.87,8.475,8.475,0,0,0,4.129,1,6.62,6.62,0,0,0,5-2.018h.066v1.753a3.751,3.751,0,0,1-1.288,2.912,5.251,5.251,0,0,1-3.634,1.158,9.06,9.06,0,0,1-2.816-.4,18.16,18.16,0,0,1-2.8-1.24l-.892,3.341a11.806,11.806,0,0,0,3.122,1.274,14.364,14.364,0,0,0,3.6.447Zm.132-10.72a4.512,4.512,0,0,1-4.707-4.782,4.673,4.673,0,0,1,1.305-3.425,4.689,4.689,0,0,1,8.06,3.375,4.832,4.832,0,0,1-1.3,3.466,4.426,4.426,0,0,1-3.361,1.365Zm19.086,4.036a9.3,9.3,0,0,0,4.071-.844,7.939,7.939,0,0,0,2.882-2.283l-2.642-2.266a5,5,0,0,1-4.113,1.952,4.783,4.783,0,0,1-3.08-1.01,4.6,4.6,0,0,1-1.627-2.762h12.024a9.46,9.46,0,0,0,.1-1.506,9.2,9.2,0,0,0-.975-4.285,7.2,7.2,0,0,0-2.807-2.961,8.7,8.7,0,0,0-7.416-.455,7.6,7.6,0,0,0-2.56,1.729,7.9,7.9,0,0,0-1.684,2.7,9.565,9.565,0,0,0-.611,3.458,8.986,8.986,0,0,0,1.106,4.492,7.587,7.587,0,0,0,3.023,3,8.868,8.868,0,0,0,4.31,1.042Zm3.815-10.274H133.48a4.271,4.271,0,0,1,1.535-2.457,4.341,4.341,0,0,1,2.709-.868,3.86,3.86,0,0,1,2.618.893A4.467,4.467,0,0,1,141.737,6.783Z" fill="#fff"/>
    <g id="Grupo_2" data-name="Grupo 2">
      <path id="Trazado_6" data-name="Trazado 6" d="M2.786,10.286a2.858,2.858,0,0,1,0,5.714,2.858,2.858,0,0,1,0-5.714ZM2.786,0A2.821,2.821,0,0,1,5.57,2.857,2.822,2.822,0,0,1,2.785,5.714,2.822,2.822,0,0,1,0,2.857,2.823,2.823,0,0,1,2.786,0ZM12.814,0A2.823,2.823,0,0,1,15.6,2.857a2.786,2.786,0,1,1-5.571,0A2.822,2.822,0,0,1,12.814,0Z" fill="#f3603c" fill-rule="evenodd"/>
      <ellipse id="Elipse_1" data-name="Elipse 1" cx="2.786" cy="2.857" rx="2.786" ry="2.857" transform="translate(10.028 10.4)" fill="#f3603c" opacity="0.5"/>
    </g>
  </g>
</svg>
